<svg width="34" height="34" viewBox="0 0 34 34" fill="none" xmlns="http://www.w3.org/2000/svg">
<g clip-path="url(#clip0_0_28)">
<path d="M17 22.3125C19.934 22.3125 22.3125 19.934 22.3125 17C22.3125 14.066 19.934 11.6875 17 11.6875C14.066 11.6875 11.6875 14.066 11.6875 17C11.6875 19.934 14.066 22.3125 17 22.3125Z" stroke="white" stroke-linecap="round" stroke-linejoin="round"/>
<path d="M23.375 4.25H10.625C7.10418 4.25 4.25 7.10418 4.25 10.625V23.375C4.25 26.8958 7.10418 29.75 10.625 29.75H23.375C26.8958 29.75 29.75 26.8958 29.75 23.375V10.625C29.75 7.10418 26.8958 4.25 23.375 4.25Z" stroke="white" stroke-linecap="round" stroke-linejoin="round"/>
<path d="M23.9062 11.4219C24.6398 11.4219 25.2344 10.8273 25.2344 10.0938C25.2344 9.36025 24.6398 8.76562 23.9062 8.76562C23.1727 8.76562 22.5781 9.36025 22.5781 10.0938C22.5781 10.8273 23.1727 11.4219 23.9062 11.4219Z" fill="white"/>
</g>
<defs>
<clipPath id="clip0_0_28">
<rect width="34" height="34" fill="white"/>
</clipPath>
</defs>
</svg>
